<?xml version="1.0" standalone="yes"?>

<svg version="1.1" viewBox="0.0 0.0 706.0 418.0" fill="none" stroke="none" stroke-linecap="square" stroke-miterlimit="10" xmlns="http://www.w3.org/2000/svg" xmlns:xlink="http://www.w3.org/1999/xlink"><clipPath id="p.0"><path d="m0 0l706.0 0l0 418.0l-706.0 0l0 -418.0z" clip-rule="nonzero"></path></clipPath><g clip-path="url(#p.0)"><path fill="#000000" fill-opacity="0.0" d="m0 0l706.0 0l0 418.0l-706.0 0z" fill-rule="nonzero"></path><path fill="#000000" d="m12.209973 410.88715l57.889767 -142.01575l57.889763 142.01575z" fill-rule="nonzero"></path><path stroke="#000000" stroke-width="2.0" stroke-linejoin="round" stroke-linecap="butt" d="m12.209973 410.88715l57.889767 -142.01575l57.889763 142.01575z" fill-rule="nonzero"></path><path fill="#980000" d="m139.32545 410.88715l0 -399.21262l122.14174 399.21262z" fill-rule="nonzero"></path><path stroke="#980000" stroke-width="2.0" stroke-linejoin="round" stroke-linecap="butt" d="m139.32545 410.88715l0 -399.21262l122.14174 399.21262z" fill-rule="nonzero"></path><path fill="#980000" d="m139.32545 11.6745405l0 399.21262l-122.14172 -399.21262z" fill-rule="nonzero"></path><path stroke="#980000" stroke-width="2.0" stroke-linejoin="round" stroke-linecap="butt" d="m139.32545 11.6745405l0 399.21262l-122.14172 -399.21262z" fill-rule="nonzero"></path><path fill="#000000" d="m287.40945 410.88715l0 -399.21262l122.14172 399.21262z" fill-rule="nonzero"></path><path stroke="#000000" stroke-width="2.0" stroke-linejoin="round" stroke-linecap="butt" d="m287.40945 410.88715l0 -399.21262l122.14172 399.21262z" fill-rule="nonzero"></path><path fill="#000000" d="m287.40945 11.6745405l0 399.21262l-122.14174 -399.21262z" fill-rule="nonzero"></path><path stroke="#000000" stroke-width="2.0" stroke-linejoin="round" stroke-linecap="butt" d="m287.40945 11.6745405l0 399.21262l-122.14174 -399.21262z" fill-rule="nonzero"></path><path fill="#000000" d="m411.88977 11.6745405l0 364.47244l-112.09448 -364.47244z" fill-rule="nonzero"></path><path stroke="#000000" stroke-width="2.0" stroke-linejoin="round" stroke-linecap="butt" d="m411.88977 11.6745405l0 364.47244l-112.09448 -364.47244z" fill-rule="nonzero"></path><path fill="#000000" d="m435.49344 410.88715l0 -399.21262l122.141754 399.21262z" fill-rule="nonzero"></path><path stroke="#000000" stroke-width="2.0" stroke-linejoin="round" stroke-linecap="butt" d="m435.49344 410.88715l0 -399.21262l122.141754 399.21262z" fill-rule="nonzero"></path><path fill="#000000" d="m557.6352 11.6745405l0 399.21262l-122.141754 -399.21262z" fill-rule="nonzero"></path><path stroke="#000000" stroke-width="2.0" stroke-linejoin="round" stroke-linecap="butt" d="m557.6352 11.6745405l0 399.21262l-122.141754 -399.21262z" fill-rule="nonzero"></path><path fill="#000000" d="m690.0 11.6797905l0 181.73228l-131.59058 -181.73228z" fill-rule="nonzero"></path><path stroke="#000000" stroke-width="2.0" stroke-linejoin="round" stroke-linecap="butt" d="m690.0 11.6797905l0 181.73228l-131.59058 -181.73228z" fill-rule="nonzero"></path><path fill="#000000" d="m651.0131 270.87402l-98.55121 -84.44095l98.55121 -84.44095z" fill-rule="nonzero"></path><path stroke="#000000" stroke-width="2.0" stroke-linejoin="round" stroke-linecap="butt" d="m651.0131 270.87402l-98.55121 -84.44095l98.55121 -84.44095z" fill-rule="nonzero"></path></g></svg>

